<?xml version="1.0" encoding="utf-8"?>
<!-- Generator: Adobe Illustrator 24.3.0, SVG Export Plug-In . SVG Version: 6.00 Build 0)  -->
<svg version="1.1" id="Layer_1" xmlns="http://www.w3.org/2000/svg" xmlns:xlink="http://www.w3.org/1999/xlink" x="0px" y="0px"
	 width="103.3px" height="978.5px" viewBox="0 0 103.3 978.5" style="enable-background:new 0 0 103.3 978.5;" xml:space="preserve"
	>
<style type="text/css">
	.st0{fill:#EC1E39;stroke:#EC1E39;stroke-width:0.25;stroke-miterlimit:10;}
	.st1{fill:none;stroke:#000000;stroke-width:2;stroke-miterlimit:10;}
	.st2{fill:none;stroke:#FFFFFF;stroke-width:2;stroke-miterlimit:10;}
	.st3{fill:#FFFFFF;}
	.st4{fill:#C53A19;}
	.st5{fill:#7D98A9;}
	.st6{fill:#010002;}
	.st7{fill:#030104;}
	.st8{fill-rule:evenodd;clip-rule:evenodd;fill:#EC1E39;}
	.st9{fill:#2F2F2F;}
	.st10{fill-rule:evenodd;clip-rule:evenodd;}
	.st11{fill-rule:evenodd;clip-rule:evenodd;fill:#FFFFFF;}
	.st12{fill:#F44336;}
	.st13{fill:#B1B1B1;}
</style>
<path class="st0" d="M5.6,7.4v1.1H4.6V0.3h0.9v3.6C6,3.1,6.9,2.6,7.8,2.6c1.6,0,2.8,1.3,2.8,2.9c0,0,0,0.1,0,0.1
	c0.1,1.6-1.2,2.9-2.7,3c0,0-0.1,0-0.1,0C6.9,8.7,6,8.2,5.6,7.4z M9.6,5.6c0.1-1.1-0.7-2.1-1.9-2.2c-0.1,0-0.1,0-0.2,0
	c-1.2,0-2.1,1-2,2.2c0,0,0,0,0,0C5.4,6.8,6.3,7.9,7.5,7.9c1.1,0,2-0.8,2.1-1.9C9.6,5.9,9.6,5.8,9.6,5.6L9.6,5.6z M11.4,10.1l0.3-0.7
	c0.3,0.2,0.6,0.2,0.9,0.2c0.6,0,0.9-0.3,1.2-1.1l-2.6-5.7h0.9l2.2,4.9l1.9-4.9h0.9l-2.4,6c-0.5,1.2-1,1.7-2,1.7
	C12.3,10.4,11.9,10.3,11.4,10.1L11.4,10.1z"/>
<path class="st1" d="M24.1,38.9l15.8,16 M40,39L24,54.8"/>
<path class="st2" d="M5.4,39.3l15.8,16 M21.3,39.4l-16,15.8"/>
<path d="M29.1,175.8c-0.6-0.6-1.4-0.9-2.2-0.9c-0.9,0-1.7,0.3-2.3,1l-3.2,3.4L10.6,176l-2.1,2.1c-0.2,0.2-0.3,0.6-0.3,0.9
	c0,0.3,0.1,0.6,0.3,0.8l0.1,0.1l8.1,4.5l-2.9,3.1c-0.2,0.2-0.4,0.4-0.6,0.7l-3.5-0.9l-1.4,1.4c-0.4,0.4-0.4,1.1,0,1.5l0.1,0.1l4,2.1
	l0.2,0.2l2.1,4l0.1,0.1c0.2,0.1,0.5,0.2,0.7,0.2c0.3,0,0.5-0.1,0.7-0.3l1.4-1.4l-0.9-3.6c0.2-0.2,0.5-0.3,0.7-0.5l3.1-2.9l4.5,8.1
	v0.1l0.1,0.1c0.5,0.4,1.1,0.4,1.6,0l2.1-2.1l-3.2-11l3.4-3.2c0.6-0.6,1-1.4,1-2.2C30,177.2,29.7,176.4,29.1,175.8z M28,179.3
	l-3.9,3.7l3.3,10.9l-1.4,1.4l-5.1-9.3l-4.4,4.1c-0.2,0.2-0.5,0.4-0.8,0.6l-0.5,0.2l1,3.9l-0.6,0.6l-1.9-3.7l-0.5-0.5l-3.7-1.9
	l0.6-0.6l3.8,1l0.2-0.5c0.1-0.3,0.3-0.6,0.6-0.8l4.1-4.4l-9.2-5.1l1.4-1.4l10.9,3.3l3.7-4c0.4-0.4,0.9-0.6,1.4-0.6
	c0.5,0,0.9,0.2,1.2,0.5c0.3,0.3,0.5,0.8,0.5,1.2C28.6,178.5,28.4,178.9,28,179.3z"/>
<path d="M27.9,209.8c-0.1-0.2-0.2-0.3-0.4-0.4l-2.5-0.7l-0.5-3.3c-0.3-1.1-1.2-2-2.4-2h-1.6v-0.7c0-0.3-0.2-0.6-0.6-0.6c0,0,0,0,0,0
	h-2.7c-0.3,0-0.6,0.2-0.6,0.6c0,0,0,0,0,0v0.6H15c-1.2,0-2.2,0.8-2.4,2l-0.6,3.4l-2.5,0.7c-0.2,0.1-0.4,0.2-0.4,0.4
	c-0.1,0.2-0.1,0.3,0,0.5l3.8,7.3c0.1,0.2,0.4,0.3,0.6,0.3h10.1c0.2,0,0.5-0.1,0.6-0.3l3.8-7.3C28,210.1,28,210,27.9,209.8z
	 M22,204.6c0.6,0.1,1,0.5,1.2,1l0.4,2.7l-4.5-1.3v-2.4H22z M17.9,204.6v2.4l-4.5,1.3l0.4-2.7c0.1-0.6,0.6-1,1.2-1H17.9z M10.6,210.4
	l7.3-2.1v8.3h-4L10.6,210.4z M23.2,216.7h-4v-8.4l7.3,2.1L23.2,216.7z"/>
<path d="M37.3,233.9l-4.3-5c-0.1-0.2-0.4-0.3-0.6-0.3h-3.6v-3c0-0.4-0.4-0.7-0.8-0.7H12.6c-0.4,0-0.7,0.3-0.7,0.7c0,0,0,0,0,0v1H4.7
	c-0.4,0-0.7,0.3-0.7,0.7c0,0.4,0.3,0.7,0.7,0.7c0,0,0,0,0,0h7.2v9.7H7.5c-0.4,0-0.7,0.3-0.7,0.7s0.3,0.7,0.7,0.7c0,0,0,0,0,0h4.3
	v0.8c0,0.4,0.3,0.7,0.7,0.7c0,0,0,0,0,0h1.6c0.4,1.5,1.9,2.4,3.4,2c1-0.3,1.7-1,2-2h10c0.4,1.5,1.9,2.4,3.4,2c1-0.3,1.7-1,2-2h1.7
	c0.4,0,0.7-0.3,0.7-0.7c0,0,0,0,0,0v-5.5C37.5,234.2,37.4,234.1,37.3,233.9z M16.9,241.4c-0.7,0-1.3-0.6-1.3-1.3s0.6-1.3,1.3-1.3
	s1.3,0.6,1.3,1.3C18.2,240.8,17.6,241.4,16.9,241.4z M19.6,239.3c-0.4-1.5-1.9-2.4-3.4-2c-1,0.3-1.7,1-2,2h-0.8v-12.9h13.9v12.9
	H19.6z M32.3,241.4c-0.7,0-1.3-0.6-1.3-1.3s0.6-1.3,1.3-1.3c0.7,0,1.3,0.6,1.3,1.3C33.6,240.8,33,241.4,32.3,241.4z M36,239.3h-1
	c-0.4-1.5-1.9-2.4-3.4-2c-1,0.3-1.7,1-2,2h-0.8v-9.1H32l4,4.5V239.3z M5.1,237.8H4.7c-0.4,0-0.7,0.3-0.7,0.7c0,0.4,0.3,0.7,0.7,0.7
	c0,0,0,0,0,0h0.4c0.4,0,0.7-0.3,0.7-0.7c0,0,0,0,0,0C5.8,238.1,5.5,237.8,5.1,237.8z"/>
<path d="M8.7,232.2h-8c-0.4,0-0.7,0.3-0.7,0.7s0.3,0.7,0.7,0.7c0,0,0,0,0,0h8c0.4,0,0.7-0.3,0.7-0.7c0,0,0,0,0,0
	C9.5,232.5,9.2,232.2,8.7,232.2z"/>
<path d="M12,379.4v-9l6,4.5 M22,367.3c-2.7-0.3-5.3-0.5-8-0.4c-2.7-0.1-5.3,0.1-8,0.4c-1.6,0.5-2,4-2,7.6s0.4,7.1,2,7.6
	c2.7,0.3,5.3,0.5,8,0.4c2.7,0.1,5.3-0.1,8-0.4c1.6-0.5,2-4,2-7.6S23.6,367.8,22,367.3z"/>
<path d="M20,440.3c0-0.1-0.3-0.3-0.9-0.6c-0.2-0.1-0.4-0.2-0.6-0.3c-0.2-0.1-0.5-0.2-0.7-0.4c-0.2-0.1-0.4-0.2-0.6-0.4
	c-0.1-0.1-0.2-0.1-0.3-0.2c-0.2-0.1-0.3-0.2-0.4-0.2c-0.1-0.1-0.2-0.1-0.3-0.1c-0.2,0-0.3,0.1-0.6,0.3s-0.4,0.5-0.6,0.7
	c-0.2,0.3-0.4,0.5-0.6,0.7c-0.1,0.2-0.3,0.3-0.5,0.3c-0.1,0-0.2,0-0.3-0.1c-0.1,0-0.1,0-0.2-0.1c-0.1,0-0.1-0.1-0.3-0.2
	c-0.1-0.1-0.1-0.1-0.2-0.1c-1-0.6-1.9-1.2-2.7-2c-0.8-0.8-1.5-1.7-2-2.7c-0.1-0.1-0.1-0.1-0.1-0.2c-0.1,0-0.1,0-0.2-0.1
	c0-0.1-0.1-0.1-0.1-0.2s-0.1-0.2-0.1-0.3c0-0.2,0.1-0.4,0.3-0.5c0.2-0.3,0.5-0.5,0.8-0.7c0.3-0.2,0.5-0.4,0.7-0.6
	c0.2-0.1,0.3-0.3,0.3-0.5c0-0.1,0-0.2-0.1-0.3c0-0.2-0.1-0.3-0.2-0.5s-0.2-0.2-0.2-0.3c-0.1-0.2-0.3-0.4-0.4-0.6
	c-0.1-0.2-0.3-0.5-0.4-0.7c-0.1-0.2-0.2-0.4-0.3-0.6c-0.2-0.3-0.4-0.6-0.6-0.9H7.4c-0.3,0-0.5,0-0.8,0.1c-0.3,0.1-0.5,0.2-0.8,0.3
	c-0.4,0.1-0.8,0.6-1.2,1.3C4.2,430.3,4,431,4,431.8v0.6c0,0.2,0.1,0.4,0.1,0.7s0.1,0.4,0.2,0.5c0.1,0.2,0.1,0.4,0.2,0.6
	s0.1,0.4,0.2,0.6c0.3,0.7,0.6,1.4,0.9,2c0.7,1.1,1.5,2.1,2.4,3c0.9,0.9,1.9,1.8,3,2.4c0.6,0.4,1.3,0.7,2,0.9
	c0.2,0.1,0.4,0.1,0.6,0.2s0.4,0.1,0.6,0.2c0.2,0,0.3,0.1,0.5,0.2c0.2,0.1,0.5,0.1,0.7,0.1H16c0.7,0,1.5-0.2,2.1-0.6
	c0.6-0.2,1.1-0.7,1.4-1.2c0.1-0.2,0.2-0.5,0.2-0.8c0.1-0.3,0.1-0.5,0.1-0.8C20,440.4,20,440.4,20,440.3z"/>
<path class="st3" d="M38.2,440.8c0-0.1-0.3-0.3-0.9-0.6c-0.2-0.1-0.4-0.2-0.6-0.3c-0.2-0.1-0.5-0.2-0.7-0.4
	c-0.2-0.1-0.4-0.2-0.6-0.4c-0.1-0.1-0.2-0.1-0.3-0.2c-0.2-0.1-0.3-0.2-0.4-0.2c-0.1-0.1-0.2-0.1-0.3-0.1c-0.2,0-0.3,0.1-0.6,0.3
	s-0.4,0.5-0.6,0.7c-0.2,0.3-0.4,0.5-0.6,0.7c-0.1,0.2-0.3,0.3-0.5,0.3c-0.1,0-0.2,0-0.3-0.1c-0.1,0-0.1,0-0.2-0.1
	c-0.1,0-0.1-0.1-0.3-0.2c-0.1-0.1-0.1-0.1-0.2-0.1c-1-0.6-1.9-1.2-2.7-2c-0.8-0.8-1.5-1.7-2-2.7c0-0.2-0.1-0.3-0.3-0.3
	c0-0.1-0.1-0.1-0.1-0.2s-0.1-0.2-0.1-0.3c0-0.2,0.1-0.4,0.3-0.5c0.2-0.3,0.5-0.5,0.8-0.7c0.3-0.2,0.5-0.4,0.7-0.6
	c0.2-0.1,0.3-0.3,0.3-0.5c0-0.1,0-0.2-0.1-0.3c0-0.2-0.1-0.3-0.2-0.5s-0.2-0.2-0.2-0.3c-0.1-0.2-0.3-0.4-0.4-0.6
	c-0.1-0.2-0.3-0.5-0.4-0.7c-0.1-0.2-0.2-0.4-0.3-0.6c-0.2-0.3-0.4-0.6-0.6-0.9h-0.2c-0.3,0-0.5,0-0.8,0.1c-0.3,0.1-0.5,0.2-0.8,0.3
	c-0.4,0.1-0.8,0.6-1.2,1.3c-0.4,0.7-0.6,1.4-0.6,2.2v0.6c0,0.2,0.1,0.4,0.1,0.7s0.1,0.4,0.2,0.5c0.1,0.2,0.1,0.4,0.2,0.6
	s0.1,0.4,0.2,0.6c0.3,0.7,0.6,1.4,0.9,2c0.7,1.1,1.5,2.1,2.4,3c0.9,0.9,1.9,1.8,3,2.4c0.6,0.4,1.3,0.7,2,0.9
	c0.2,0.1,0.4,0.1,0.6,0.2s0.4,0.1,0.6,0.2c0.2,0,0.3,0.1,0.5,0.2c0.2,0.1,0.5,0.1,0.7,0.1h0.6c0.7,0,1.5-0.2,2.1-0.6
	c0.6-0.2,1.1-0.7,1.4-1.2c0.1-0.2,0.2-0.5,0.2-0.8c0.1-0.3,0.1-0.5,0.1-0.8C38.2,440.9,38.2,440.9,38.2,440.8z"/>
<path class="st4" d="M60.5,439.9c0-0.1-0.3-0.3-0.9-0.6c-0.2-0.1-0.4-0.2-0.6-0.3c-0.2-0.1-0.5-0.2-0.7-0.4
	c-0.2-0.1-0.4-0.2-0.6-0.4c-0.1-0.1-0.2-0.1-0.3-0.2c-0.2-0.1-0.3-0.2-0.4-0.2c-0.1-0.1-0.2-0.1-0.3-0.1c-0.2,0-0.3,0.1-0.6,0.3
	s-0.4,0.5-0.6,0.7c-0.2,0.3-0.4,0.5-0.6,0.7c-0.1,0.2-0.3,0.3-0.5,0.3c-0.1,0-0.2,0-0.3-0.1c-0.1,0-0.1,0-0.2-0.1
	c-0.1,0-0.1-0.1-0.3-0.2c-0.1-0.1-0.1-0.1-0.2-0.1c-1-0.6-1.9-1.2-2.7-2c-0.8-0.8-1.5-1.7-2-2.7c0-0.2-0.1-0.3-0.3-0.3
	c0-0.1-0.1-0.1-0.1-0.2s-0.1-0.2-0.1-0.3c0-0.2,0.1-0.4,0.3-0.5c0.2-0.3,0.5-0.5,0.8-0.7c0.3-0.2,0.5-0.4,0.7-0.6
	c0.2-0.1,0.3-0.3,0.3-0.5c0-0.1,0-0.2-0.1-0.3c0-0.2-0.1-0.3-0.2-0.5s-0.2-0.2-0.2-0.3c-0.1-0.2-0.3-0.4-0.4-0.6
	c-0.1-0.2-0.3-0.5-0.4-0.7c-0.1-0.2-0.2-0.4-0.3-0.6c-0.2-0.3-0.4-0.6-0.6-0.9h-0.2c-0.3,0-0.5,0-0.8,0.1c-0.3,0.1-0.5,0.2-0.8,0.3
	c-0.4,0.1-0.8,0.6-1.2,1.3c-0.4,0.7-0.6,1.4-0.6,2.2v0.6c0,0.2,0.1,0.4,0.1,0.7s0.1,0.4,0.2,0.5c0.1,0.2,0.1,0.4,0.2,0.6
	s0.1,0.4,0.2,0.6c0.3,0.7,0.6,1.4,0.9,2c0.7,1.1,1.5,2.1,2.4,3c0.9,0.9,1.9,1.8,3,2.4c0.6,0.4,1.3,0.7,2,0.9
	c0.2,0.1,0.4,0.1,0.6,0.2s0.4,0.1,0.6,0.2c0.2,0,0.3,0.1,0.5,0.2c0.2,0.1,0.5,0.1,0.7,0.1h0.6c0.7,0,1.5-0.2,2.1-0.6
	c0.6-0.2,1.1-0.7,1.4-1.2c0.1-0.2,0.2-0.5,0.2-0.8c0.1-0.3,0.1-0.5,0.1-0.8C60.5,440,60.5,440,60.5,439.9z"/>
<path d="M15.5,472.9c-0.2-0.7-0.7-1.4-1.2-1.8c-0.8-0.5-1.6-0.8-2.5-0.9c-1-0.2-2-0.2-3-0.1c-0.8,0.1-1.5,0.3-2.2,0.6
	c-1.1,0.5-1.9,1.4-2.1,2.6c0,0.5-0.1,1.1-0.2,1.6c-0.1,1,0,2.1,0.3,3.1c0.2,0.8,0.7,1.5,1.4,2l0.6,0.3c0.1,0,0.3,0.1,0.4,0.1
	c0.1,0,0.1,0,0.1,0.1l0,0v2.2h0.5l0.1-0.1l1.7-1.7l0.1-0.1c0.1-0.1,0.1-0.1,0.2-0.1c0.6,0,1.2,0,1.7-0.1c0.8,0,1.6-0.1,2.3-0.5
	c0.7-0.3,1.2-0.8,1.5-1.4c0.3-0.7,0.5-1.4,0.6-2.2C15.9,475.3,15.8,474.1,15.5,472.9z M12.9,478.5c-0.2,0.3-0.5,0.5-0.8,0.7
	c-0.2,0.1-0.5,0.1-0.7,0c-1.9-0.7-3.5-2.1-4.4-4c-0.2-0.5-0.4-0.9-0.6-1.2v-0.3c0-0.7,0.5-1,1-1.1c0.2,0,0.4,0,0.5,0.2
	c0.4,0.4,0.7,0.8,1,1.2c0.1,0.2,0.1,0.4-0.1,0.6c0,0.1,0,0.1-0.1,0.1c0,0,0,0,0,0c-0.4,0.3-0.5,0.5-0.3,1c0.4,0.7,1,1.3,1.7,1.6
	c0.2,0.1,0.4,0,0.6-0.1l0.1-0.1c0.2-0.4,0.6-0.5,1-0.3c0.1,0,0.1,0.1,0.2,0.1c0.3,0.2,0.5,0.4,0.8,0.6
	C13,477.7,13.1,478.2,12.9,478.5z M10.3,473.4H10c-0.2,0-0.3-0.1-0.3-0.2s0.1-0.3,0.2-0.3h0.4c1.2,0,2.1,1,2.1,2.1v0.4
	c0,0.1-0.1,0.2-0.2,0.2c-0.2-0.1-0.3-0.2-0.3-0.4v-0.3C11.9,474.1,11.2,473.4,10.3,473.4z M11.6,475c0,0.2-0.1,0.3-0.3,0.3
	c-0.2,0-0.3-0.1-0.3-0.3c0-0.5-0.4-0.9-0.9-0.9c0,0,0,0,0,0c-0.1,0-0.2-0.1-0.2-0.2c0-0.1,0.1-0.3,0.2-0.3c0,0,0,0,0.1,0
	C11,473.7,11.6,474.3,11.6,475C11.6,475,11.6,475,11.6,475z M13.2,475.6c0,0.1-0.1,0.2-0.3,0.2h-0.1c-0.2,0-0.3-0.2-0.2-0.3
	s0.1-0.4,0.1-0.6c0-1.3-1-2.4-2.4-2.4c0,0,0,0,0,0c-0.2,0-0.4,0-0.6,0.1c-0.2,0-0.3-0.1-0.3-0.2s0.1-0.3,0.2-0.3
	c0.2-0.1,0.4-0.1,0.7-0.1c1.7,0,3,1.3,3,3C13.3,475.3,13.3,475.4,13.2,475.6L13.2,475.6z"/>
<path d="M18.4,492h-1.3v-1.3h-1.3v1.3h-1.3v1.3h1.3v1.3h1.3v-1.4h1.3 M8.7,492v1.6h2.7c-0.4,1.2-1.4,1.9-2.7,1.9
	c-1.6,0-2.9-1.3-2.9-2.9s1.3-2.9,2.9-2.9c0.7-0.1,1.4,0.2,1.8,0.8l1.2-1.1c-0.7-0.9-1.8-1.4-3-1.4c-2.6-0.1-4.8,1.9-4.9,4.4
	c-0.1,2.6,1.9,4.8,4.4,4.9c0.1,0,0.3,0,0.4,0c2.3,0.1,4.2-1.7,4.3-4c0-0.1,0-0.3,0-0.4c0-0.3,0-0.5-0.1-0.8H8.7L8.7,492z"/>
<path class="st5" d="M10.7,516.5c0.6,0,1-0.4,1-1v-3.9l5.7-3.6v-1.4l-5.7,1.8v-3.9l1.4-1v-1l-2.5,0.7l-2.5-0.8v1l1.4,1.1v3.9
	L4,506.6v1.4l5.7,3.5v3.9C9.6,516,10.1,516.5,10.7,516.5C10.7,516.5,10.7,516.5,10.7,516.5z"/>
<path class="st6" d="M18,522.4c-0.5,0.2-1.1,0.4-1.6,0.5c0.6-0.4,1-0.9,1.3-1.6c-0.6,0.3-1.2,0.6-1.8,0.7c-0.5-0.6-1.3-0.9-2.1-0.9
	c-1.6-0.1-2.9,1.1-3,2.7c0,0,0,0.1,0,0.1c0,0.2,0,0.5,0.1,0.7c-2.3-0.1-4.4-1.2-5.9-3c-0.3,0.4-0.4,0.9-0.4,1.4c0,1,0.5,1.9,1.3,2.4
	c-0.5,0-0.9-0.1-1.3-0.4c0,1.4,1,2.5,2.3,2.8C6.7,528,6.4,528,6.1,528c-0.2,0-0.4,0-0.5-0.1c0.3,1.2,1.4,2,2.6,2
	c-1,0.8-2.3,1.2-3.6,1.2H3.9c1.3,0.8,2.8,1.3,4.4,1.3c4.4,0.1,8-3.5,8.1-7.9c0-0.1,0-0.1,0-0.2v-0.4C17,523.6,17.6,523,18,522.4z"/>
<path d="M4.4,542.7l3.2,1.2l1.2,4c0.1,0.2,0.3,0.3,0.5,0.2c0,0,0.1,0,0.1,0l1.8-1.4c0.1-0.2,0.4-0.2,0.5-0.1c0,0,0,0,0.1,0.1L15,549
	c0.2,0.2,0.5,0,0.6-0.2l2.3-11.3c0.1-0.3-0.2-0.5-0.5-0.4l-13,5C4,542.1,4,542.5,4.4,542.7z M8.6,543.2l6.2-3.8
	c0.1-0.1,0.2,0.1,0.1,0.2l-5.1,4.7c-0.2,0.2-0.3,0.4-0.4,0.7l-0.1,1.2c0,0.1-0.1,0.2-0.2,0.2c-0.1,0-0.1-0.1-0.1-0.2l-0.7-2.3
	C8.2,543.6,8.3,543.4,8.6,543.2z"/>
<path d="M10,552.9c-3-0.1-5.5,2.3-5.6,5.3c0.1,1.6,0.8,3,2,4v2.2l2.1-1.1c0.5,0.2,1.1,0.2,1.6,0.2c2.9,0.3,5.5-1.8,5.8-4.7
	s-1.8-5.5-4.7-5.8C10.7,552.9,10.4,552.9,10,552.9z M10.6,559.9l-1.4-1.6l-2.6,1.5l2.9-3.1l1.4,1.4l2.5-1.4L10.6,559.9z"/>
<path class="st7" d="M8.2,594.8c-0.3,1.7-0.7,3.3-1.8,4.1c-0.4-2.5,0.5-4.4,0.9-6.4c-0.7-1.1,0.1-3.5,1.5-2.9
	c1.8,0.7-1.5,4.3,0.7,4.8c2.4,0.4,3.3-4.1,1.9-5.5c-2.1-2.1-6.1,0-5.6,3c0.1,0.7,0.9,1,0.3,2c-1.3-0.4-1.7-1.4-1.7-2.8
	c0.2-2.2,1.9-3.9,4.1-4.2c2.5-0.2,4.9,1,5.2,3.3c0.3,2.7-1.2,5.6-3.9,5.4C9.2,595.5,8.7,595.2,8.2,594.8z"/>
<path d="M5.4,605.2v1.7H4.2v2h1.2v6h2.5v-6h1.7c0.1-0.7,0.2-1.3,0.2-2H7.9v-1.4c0.1-0.3,0.2-0.4,0.5-0.5h1.4v-2.1H8
	C5.3,602.9,5.4,604.9,5.4,605.2z"/>
<path class="st8" d="M41.1,17.4l-0.3,0.3c-0.2,0.2-0.6,0.4-0.9,0.4c-0.3,0-0.7,0-1,0c-0.5-0.1-1-0.3-1.3-0.6
	c-0.4-0.3-0.6-0.7-0.8-1.1c-0.2-0.5-0.3-1.1-0.2-1.7c0.1-0.9,0.7-1.6,1.5-2.1c0.3-0.2,0.6-0.3,0.9-0.3c0.3-0.1,0.6-0.1,0.9,0
	c0.4,0.1,0.8,0.2,1.1,0.5l0.1,0.1h0.1c0-0.1,0-0.3,0-0.4s0-0.1,0.2-0.1h1.2c0.2,0,0.2,0,0.2,0.2v2.4c0,1,0,2,0,3
	c0,0.6-0.1,1.2-0.5,1.8c-0.2,0.4-0.6,0.6-1,0.8c-0.3,0.2-0.7,0.2-1,0.3c-0.3,0-0.7,0-1,0c-0.3,0-0.7-0.1-1-0.2
	c-0.4-0.1-0.7-0.3-1-0.5C37,20,37,20,37.1,19.9c0.2-0.3,0.4-0.6,0.6-0.9c0-0.1,0.1-0.1,0.2,0c0.2,0.2,0.5,0.3,0.8,0.4
	c0.3,0.1,0.6,0.1,0.8,0.1c0.4,0,0.8-0.1,1.2-0.4c0.2-0.2,0.3-0.5,0.4-0.7C41.1,18,41.1,17.7,41.1,17.4z M39.6,16.7
	c0.9,0,1.6-0.7,1.6-1.6c0-0.9-0.7-1.6-1.6-1.6c-0.9,0-1.6,0.7-1.6,1.5c-0.1,0.8,0.6,1.6,1.4,1.6C39.5,16.7,39.5,16.7,39.6,16.7z"/>
<path class="st8" d="M41.3,7.6c-0.2,0.1-0.3,0.3-0.5,0.4c-0.2,0.2-0.5,0.3-0.8,0.3c-0.2,0-0.3,0-0.5,0.1c-0.5,0-1.1-0.2-1.5-0.5
	c-0.5-0.4-0.9-0.9-1.1-1.5c-0.1-0.5-0.2-1-0.1-1.5C36.8,4.4,37,4,37.2,3.6c0.3-0.4,0.6-0.7,1-0.9c0.2-0.1,0.4-0.2,0.6-0.2
	c0.3-0.1,0.6-0.1,0.9-0.1c0.5,0,1,0.2,1.4,0.6l0.2,0.1V2.6h1.5c0,0,0,0.1,0,0.1c0,1.1,0,2.2,0,3.3c0,0.2,0,0.3,0,0.5
	c0,0.7,0,1.5,0,2.2c0,0.3-0.1,0.5-0.2,0.8c-0.2,0.5-0.5,0.8-0.9,1.1c-0.3,0.2-0.7,0.4-1.1,0.4C40.2,11,40,11,39.7,11
	c-0.5,0-1-0.1-1.5-0.2c-0.3-0.1-0.7-0.3-0.9-0.5c-0.1-0.1-0.1-0.1,0-0.2c0.2-0.3,0.4-0.6,0.6-0.9c0-0.1,0.1-0.1,0.2,0
	c0.3,0.2,0.7,0.4,1.1,0.4c0.3,0,0.7,0,1,0c0.3,0,0.5-0.2,0.7-0.4c0.3-0.3,0.4-0.6,0.4-1C41.3,8,41.3,7.8,41.3,7.6z M38.2,5.4
	c0,0.1,0,0.3,0.1,0.4c0,0.1,0.1,0.2,0.1,0.3c0.2,0.5,0.7,0.8,1.2,0.8c0.2,0,0.5,0,0.7-0.1c0.5-0.2,0.9-0.8,0.9-1.4
	c0-0.3,0-0.5-0.1-0.8C40.8,4,40,3.6,39.2,3.9C38.6,4.1,38.2,4.7,38.2,5.4z"/>
<path class="st8" d="M32.1,8.4h-1.4c0,0-0.1-0.1-0.1-0.1s0-0.2,0-0.3c0-0.1,0-0.1,0-0.2c-0.2,0.1-0.3,0.3-0.5,0.4
	c-0.2,0.2-0.5,0.3-0.7,0.3c-0.2,0-0.4,0-0.6,0.1c-0.3,0-0.7-0.1-1-0.2c-0.5-0.2-0.9-0.6-1.2-1c-0.2-0.3-0.3-0.6-0.4-1
	c0-0.3-0.1-0.6-0.1-0.8c0-0.4,0.1-0.8,0.2-1.2c0.1-0.4,0.3-0.8,0.6-1.1c0.3-0.3,0.7-0.6,1.1-0.7c0.3-0.1,0.6-0.2,0.9-0.2
	c0.3,0,0.7,0.1,1,0.2c0.3,0.1,0.5,0.3,0.8,0.4c0-0.1,0-0.1,0-0.2V0.2c0-0.2,0-0.2,0.2-0.2h1.1c0.2,0,0.2,0,0.2,0.2
	c0,2.3,0,4.6,0,6.9L32.1,8.4L32.1,8.4z M29.1,7.2c0.3,0,0.5-0.1,0.8-0.2c0.4-0.2,0.6-0.6,0.7-1.1c0.1-0.5,0-1.1-0.3-1.5
	c-0.4-0.5-1-0.7-1.6-0.6c-0.6,0.2-1,0.6-1.1,1.2c-0.1,0.4-0.1,0.8,0.1,1.2C27.9,6.8,28.4,7.2,29.1,7.2L29.1,7.2z"/>
<path class="st8" d="M57.8,17.7c0,0.1,0,0.2,0,0.2v2.5c0,0.1,0,0.2-0.2,0.2h-1.2c0,0-0.1-0.1-0.1-0.1c0,0,0-0.1,0-0.1v-7.8
	c0-0.2,0-0.2,0.2-0.2h1c0.2,0,0.2,0,0.2,0.2v0.4l0,0c0.1,0,0.1-0.1,0.1-0.1c0.4-0.4,0.9-0.6,1.4-0.6c0.5,0,1,0,1.4,0.3
	c0.6,0.3,1,0.7,1.3,1.3c0.3,0.6,0.4,1.2,0.4,1.8c0,0.5-0.1,1-0.4,1.4c-0.3,0.5-0.7,1-1.3,1.2c-0.4,0.2-0.8,0.3-1.3,0.2
	c-0.4,0-0.8-0.1-1.2-0.3c-0.1-0.1-0.2-0.2-0.4-0.3L57.8,17.7z M60.9,15.3c0-0.5-0.2-1-0.6-1.3c-0.5-0.4-1.2-0.5-1.7-0.2
	c-0.4,0.2-0.7,0.6-0.8,1c-0.1,0.5-0.1,0.9,0.2,1.4c0.3,0.5,0.8,0.8,1.4,0.8c0.3,0,0.7-0.1,0.9-0.4C60.7,16.3,60.9,15.8,60.9,15.3z"
	/>
<path class="st8" d="M53,12.9v-0.4c0-0.1,0-0.1,0.1-0.1h1.3c0.1,0,0.2,0,0.2,0.1c0,1.9,0,3.7,0,5.6c0,0.1,0,0.1-0.1,0.1h-1.2
	c-0.1,0-0.2-0.1-0.2-0.2s0-0.2,0-0.4l0,0l-0.3,0.2c-0.3,0.2-0.6,0.4-0.9,0.5c-0.3,0.1-0.7,0.1-1,0c-0.5-0.1-1-0.3-1.4-0.7
	c-0.3-0.3-0.6-0.7-0.7-1.1c-0.1-0.2-0.1-0.4-0.2-0.6c0-0.3-0.1-0.5-0.1-0.8c0-0.6,0.1-1.1,0.4-1.6c0.3-0.5,0.7-0.9,1.2-1.2
	c0.4-0.2,0.8-0.2,1.2-0.2c0.6,0,1.2,0.2,1.6,0.6L53,12.9z M53,15.1c0-0.9-0.7-1.6-1.6-1.6c-0.2,0-0.5,0.1-0.7,0.2
	c-0.4,0.3-0.7,0.7-0.7,1.2c-0.1,0.4-0.1,0.8,0.1,1.1c0.2,0.4,0.5,0.8,1,0.9c0.3,0.1,0.7,0.1,1-0.1C52.7,16.6,53.1,15.9,53,15.1
	L53,15.1z"/>
<path class="st8" d="M63.8,9.8h1.5v3c0.2-0.1,0.3-0.3,0.4-0.4c0.4-0.2,0.8-0.3,1.2-0.3c0.7,0,1.3,0.3,1.8,0.8
	c0.2,0.2,0.3,0.5,0.4,0.8c0.1,0.5,0.1,1,0.1,1.4V18c0,0.1,0,0.1,0,0.2h-0.5c-0.3,0-0.5,0-0.8,0s-0.2,0-0.2-0.2c0-1.1,0-2.2,0-3.3
	c0-0.6-0.5-1.1-1.1-1.2c-0.1,0-0.2,0-0.3,0c-0.4,0.1-0.7,0.3-0.9,0.7c-0.1,0.1-0.1,0.3-0.1,0.4V18c0,0.1,0,0.2-0.2,0.2
	c-0.4,0-0.8,0-1.2,0c-0.1,0-0.2,0-0.2-0.1V9.9C63.8,9.9,63.8,9.9,63.8,9.8z"/>
<path class="st8" d="M56.8,2.6h1.4v5.8h-1.3c-0.1,0-0.2-0.1-0.2-0.2s0-0.3,0-0.4l-0.4,0.3c-0.3,0.2-0.6,0.3-0.9,0.4
	c-0.2,0-0.5,0.1-0.7,0.1c-0.4,0-0.9-0.2-1.2-0.4c-0.5-0.3-0.9-0.8-1.1-1.4c-0.2-0.5-0.3-1.1-0.2-1.7c0.1-0.3,0.1-0.6,0.3-0.9
	c0.2-0.4,0.4-0.8,0.8-1.1c0.3-0.3,0.6-0.4,1-0.5c0.3-0.1,0.5-0.1,0.8-0.1c0.6,0,1.2,0.2,1.6,0.6c0,0,0.1,0,0.1,0.1c0,0,0-0.1,0-0.1
	C56.8,2.8,56.8,2.7,56.8,2.6L56.8,2.6z M55.2,7.2c0.3,0,0.6-0.1,0.9-0.3c0.4-0.3,0.7-0.9,0.7-1.4c0-0.3-0.1-0.6-0.2-0.9
	c-0.3-0.7-1.1-1-1.8-0.7c-0.6,0.2-1,0.7-1.1,1.2c-0.1,0.5,0,0.9,0.2,1.3C54.1,6.9,54.7,7.2,55.2,7.2z"/>
<path class="st8" d="M79.7,12.4L79.2,13l-0.6,0.9c-0.3,0.4-0.5,0.7-0.8,1c-0.1,0.1-0.1,0.2,0,0.3c0,0,0,0,0,0l0.9,1.3
	c0.3,0.5,0.7,1,1,1.5v0.1h-0.2h-1.5c-0.1,0-0.2,0-0.2-0.1l-1.1-1.6c-0.1-0.2-0.2-0.4-0.4-0.6c0-0.1-0.1-0.1-0.2-0.1
	c-0.1,0-0.3,0-0.4,0s-0.2,0-0.2,0.2v2c0,0.1,0,0.2-0.2,0.2c-0.4,0-0.8,0-1.1,0c-0.2,0-0.2,0-0.2-0.2V9.8h1.3c0.1,0,0.2,0,0.2,0.2
	v4.3c0,0.2,0,0.2,0.2,0.2s0.2,0,0.3,0c0.2,0,0.3-0.1,0.4-0.2l0.8-1.1l0.4-0.6c0.1-0.1,0.2-0.2,0.3-0.1c0.5,0,1,0,1.5,0L79.7,12.4z"
	/>
<path class="st8" d="M82.6,18.4c-0.7,0-1.4-0.2-2-0.6c-0.1-0.1-0.3-0.2-0.4-0.3c-0.1-0.1-0.1-0.1,0-0.2c0.2-0.2,0.4-0.5,0.7-0.8
	c0.1-0.1,0.1-0.1,0.2,0c0.3,0.3,0.6,0.5,0.9,0.6c0.1,0,0.2,0.1,0.3,0.1c0.3,0,0.6,0,0.9,0c0.2,0,0.4-0.2,0.4-0.5
	c0-0.2-0.1-0.5-0.3-0.5c-0.3-0.1-0.6-0.2-0.9-0.3c-0.5-0.1-0.9-0.3-1.3-0.6c-0.3-0.2-0.5-0.6-0.5-0.9c0-0.1-0.1-0.2-0.1-0.3
	c0-0.6,0.3-1.1,0.8-1.4c0.3-0.2,0.7-0.3,1.1-0.4c0.1,0,0.3,0,0.4,0c0.6,0,1.3,0.2,1.8,0.5c0.1,0.1,0.3,0.2,0.4,0.4
	c0,0,0.1,0.1,0,0.2c0,0,0,0,0,0c-0.2,0.2-0.4,0.5-0.7,0.7c-0.1,0-0.1,0-0.2,0c-0.2-0.2-0.4-0.3-0.7-0.4c-0.2-0.1-0.5-0.1-0.7-0.1
	c-0.2,0-0.3,0-0.4,0.1c-0.2,0.1-0.4,0.3-0.3,0.5c0,0.2,0.1,0.3,0.3,0.4c0.3,0.1,0.6,0.2,0.8,0.3s0.8,0.3,1.2,0.5
	c0.3,0.2,0.6,0.4,0.7,0.8c0.1,0.2,0.1,0.4,0.1,0.6c0,0.7-0.4,1.3-1,1.5c-0.3,0.2-0.7,0.3-1.1,0.3C82.8,18.5,82.7,18.4,82.6,18.4z"/>
<path class="st8" d="M48.2,1h1.4c0.1,0,0.1,0.1,0.1,0.1v1.2c0,0.2,0,0.2,0.2,0.2h1.2c0.1,0,0.2,0,0.2,0.2c0,0.3,0,0.7,0,1
	c0,0.1,0,0.2-0.2,0.2h-1.2c-0.1,0-0.2,0-0.2,0.2c0,0.8,0,1.7,0,2.5c0,0.4,0.3,0.6,0.6,0.7c0.1,0,0.2,0,0.2,0L50.9,7
	c0.1-0.1,0.2-0.1,0.2,0s0.3,0.5,0.5,0.8c0.1,0.1,0.1,0.2,0,0.3c-0.3,0.2-0.6,0.3-0.9,0.4c-0.3,0.1-0.7,0.1-1,0
	c-0.5,0-0.9-0.2-1.2-0.6c-0.2-0.2-0.3-0.5-0.3-0.8c-0.1-0.4-0.1-0.7-0.1-1.1c0-0.6,0-1.3,0-1.9c0-0.2,0-0.2-0.2-0.2h-0.7
	c-0.1,0-0.2,0-0.2-0.1V2.7c0-0.1,0-0.1,0.1-0.1h0.8c0.1,0,0.1,0,0.1-0.1c0-0.4,0-0.8,0-1.2C48.2,1.2,48.2,1.1,48.2,1z"/>
<path class="st8" d="M26.3,11.9h8.9v1.4h-8.9V11.9z"/>
<path class="st8" d="M60,8.4V0h1.3c0.1,0,0.2,0,0.2,0.2v8c0,0.1,0,0.2-0.2,0.2L60,8.4z"/>
<path class="st8" d="M45.8,12.9c0.2-0.2,0.4-0.4,0.6-0.5c0.2-0.2,0.5-0.2,0.7-0.2c0.3,0,0.7,0,1,0.2c0.1,0,0.1,0.1,0.1,0.2
	c-0.2,0.4-0.4,0.8-0.6,1.3l-0.4-0.1c-0.5-0.2-1,0-1.2,0.4c0,0,0,0.1,0,0.1c-0.1,0.2-0.1,0.4-0.1,0.6c0,1.1,0,2.1,0,3.2
	c0,0.2,0,0.2-0.2,0.2h-1.1c-0.2,0-0.2,0-0.2-0.2v-5.1c0-0.1,0-0.2,0-0.4s0-0.2,0.2-0.2h1.1c0.1,0,0.2,0.1,0.2,0.2L45.8,12.9z"/>
<path class="st8" d="M44.5,2.6H46c0,0.1,0,0.1,0,0.2c0,1.8,0,3.7,0,5.5c0,0.1,0,0.2-0.2,0.2h-1.2c-0.1,0-0.2,0-0.2-0.1
	c0-1.9,0-3.7,0-5.5C44.5,2.7,44.5,2.6,44.5,2.6z"/>
<path class="st8" d="M35.3,8.4h-1.4V2.6h1.4L35.3,8.4z"/>
<path class="st8" d="M70.9,12.4h1.4c0,0.1,0,0.1,0,0.2c0,1.8,0,3.7,0,5.5c0,0.1,0,0.2-0.2,0.2c-0.4,0-0.8,0-1.1,0
	c-0.1,0-0.1,0-0.1-0.1v-5.6C70.9,12.5,70.9,12.4,70.9,12.4z"/>
<path class="st8" d="M72.5,10.7c0,0.5-0.4,0.9-0.9,0.9c-0.5,0-0.9-0.4-0.9-0.9s0.4-0.9,0.9-0.9c0,0,0,0,0,0
	C72.1,9.8,72.5,10.2,72.5,10.7z"/>
<path class="st8" d="M45.2,0c0.5,0,0.9,0.4,0.9,0.9c0,0,0,0,0,0c0,0.5-0.4,0.8-0.8,0.9c0,0-0.1,0-0.1,0c-0.5,0-0.9-0.4-0.9-0.8
	c0,0,0-0.1,0-0.1C44.4,0.4,44.8,0,45.2,0z"/>
<path class="st8" d="M33.8,0.9c0-0.5,0.3-0.8,0.8-0.9c0,0,0,0,0.1,0c0.5,0,0.9,0.4,0.8,0.9c0,0.5-0.4,0.8-0.9,0.8
	C34.2,1.8,33.8,1.5,33.8,0.9C33.8,1,33.8,1,33.8,0.9z"/>
<g id="Page-1">
	<g id="_022---Tape-Measure">
		<path id="Shape" d="M15.2,659.9c-1.1-0.1-2.2-0.2-3.4-0.2c-4,0-7.1,1.6-7.1,3.6v4.8c0,1.6,2,3,5,3.4c-0.8,0.6-1.7,1.2-2.6,1.8
			c-0.2,0.1-0.3,0.3-0.3,0.5c0,0.2,0.1,0.4,0.2,0.5l4,3.2c0.2,0.2,0.5,0.2,0.7,0c0.7-0.5,1.3-1,2-1.5s1.2-1,1.8-1.6l0,0
			c0.6-0.5,1.1-1,1.6-1.6l0,0l0,0c0.4-0.4,0.8-0.8,1.1-1.2c1-1.1,2.2-2.5,2.5-4.3c0.4-2.2-0.3-4.4-1.8-6
			C17.9,660.5,16.6,660,15.2,659.9z M11.9,660.3c3.5,0,6.5,1.4,6.5,3c0,1.9-3.8,3-6.5,3c-3.5,0-6.5-1.4-6.5-3S8.4,660.3,11.9,660.3
			L11.9,660.3z M5.4,668.1v-3.3c1.1,1.3,3.6,2.1,6.5,2.1c1.6,0,3.1-0.2,4.6-0.8c-1.8,1.7-3.7,3.3-5.8,4.7v-1.5
			c0-0.2-0.1-0.3-0.3-0.3c-0.2,0-0.3,0.1-0.3,0.3v1.7c-0.5-0.1-1-0.2-1.5-0.3v-1.7c0-0.2-0.1-0.3-0.3-0.3c-0.2,0-0.3,0.1-0.3,0.3
			v1.5c-0.4-0.1-0.8-0.3-1.2-0.5V668c0-0.2-0.1-0.3-0.2-0.3c-0.2,0-0.3,0.1-0.3,0.2c0,0,0,0.1,0,0.1v1.5
			C5.7,669.2,5.4,668.6,5.4,668.1L5.4,668.1z M11.4,676.9l-4-3.2c0.5-0.3,0.9-0.6,1.4-1c0.3,0.2,0.6,0.2,0.9,0.2
			c0.4-0.1,0.7,0.1,0.8,0.5c0,0,0,0.1,0,0.1c0.1,0.7,0.8,1.2,1.5,1.1c0.2,0,0.4,0,0.5,0.1c0.2,0.1,0.3,0.3,0.3,0.5
			c0,0.2,0.1,0.3,0.2,0.5C12.5,676.1,12,676.5,11.4,676.9L11.4,676.9z M20.1,667.1c-0.1,0.5-0.2,0.9-0.4,1.4l-0.4-0.6
			c-0.1-0.1-0.3-0.2-0.4-0.1c-0.1,0.1-0.2,0.3-0.1,0.4c0,0,0,0,0,0l0.6,0.8c-0.3,0.5-0.6,0.9-1,1.3l-0.8-0.9
			c-0.1-0.1-0.2-0.1-0.3-0.1c-0.1,0-0.2,0.1-0.2,0.2c0,0.1,0,0.2,0.1,0.3l0.9,1c-0.1,0.1-0.1,0.2-0.2,0.3c-0.3,0.3-0.6,0.7-0.9,1
			l-1.2-1.1c-0.1-0.1-0.2-0.1-0.3-0.1c-0.1,0-0.2,0.1-0.2,0.2c0,0.1,0,0.2,0.1,0.3l1.2,1c-0.4,0.4-0.8,0.8-1.2,1.2l-1.4-1.2
			c-0.1-0.1-0.2-0.1-0.3,0c-0.1,0-0.2,0.1-0.2,0.2c0,0.1,0,0.2,0.1,0.3l1.4,1.2c-0.4,0.4-0.8,0.8-1.3,1.1c0-0.1-0.1-0.1-0.1-0.2
			c-0.1-0.7-0.8-1.1-1.4-1c-0.4,0.1-0.8-0.2-0.8-0.6c0,0,0,0,0,0c-0.1-0.7-0.8-1.1-1.5-1H9.4c3.4-2.4,7.4-5.5,9-7.6
			c0.4-0.4,0.6-0.9,0.6-1.4c-0.1-0.9-0.6-1.8-1.4-2.2c0.3,0.2,0.6,0.4,0.9,0.6C19.9,663.2,20.5,665.2,20.1,667.1L20.1,667.1z"/>
		<path id="Shape-2" d="M11.9,665.1c1.2,0,3.2-0.3,3.8-1.5c0.4-0.8-0.3-1.5-1-2c-0.7-0.4-1.4-0.7-2.1-0.9c-0.2-0.1-0.5,0-0.7,0.1
			c-0.1,0.1-0.2,0.2-0.3,0.3c-2.1,0.1-3.6,0.9-3.6,1.9C8,664.5,10.4,665,11.9,665.1L11.9,665.1z M14.1,664.1l0.1-2.1
			c0.1,0,0.1,0.1,0.2,0.1C15.5,662.9,15.5,663.6,14.1,664.1L14.1,664.1z M12.1,661.5L12.1,661.5c0-0.1,0-0.1,0.1-0.2
			c0.1,0,0.1,0,0.2,0c0.4,0.1,0.8,0.2,1.2,0.4l-0.1,2.6c-0.5,0.1-1,0.2-1.5,0.2L12.1,661.5z M11.5,661.8l-0.2,2.6
			c-1.6-0.1-2.7-0.8-2.7-1.3S9.8,661.9,11.5,661.8z"/>
		<path id="Shape-3" d="M12.8,662.7c-0.2,0-0.3,0.1-0.3,0.3c0,0,0,0,0,0v0.3c0,0.2,0.2,0.3,0.3,0.2c0.1,0,0.2-0.1,0.2-0.2V663
			C13.1,662.8,13,662.7,12.8,662.7C12.8,662.7,12.8,662.7,12.8,662.7z"/>
		<path id="Shape-4" d="M9.7,674c-0.1-0.1-0.3-0.1-0.4,0c-0.1,0.1-0.1,0.3,0,0.4c0,0,0,0,0,0l1.5,1.2c0.1,0.1,0.3,0.1,0.4,0
			c0.1-0.1,0.1-0.3,0-0.4c0,0-0.1,0-0.1-0.1L9.7,674z"/>
	</g>
</g>
<g id="Page-1-2">
	<g id="_022---Tape-Measure-2">
		<path id="Shape-5" d="M11.7,680c-0.7-0.1-1.5-0.1-2.2-0.1c-2.7,0-4.8,1.1-4.8,2.4v3.2c0,1.1,1.4,2,3.4,2.3L6.2,689
			c-0.1,0.1-0.2,0.2-0.2,0.3c0,0.1,0,0.3,0.1,0.3l2.7,2.1c0.1,0.1,0.3,0.1,0.5,0c0.4-0.3,0.9-0.7,1.3-1s0.8-0.7,1.2-1l0,0
			c0.4-0.3,0.7-0.7,1.1-1.1l0,0c0.2-0.3,0.5-0.5,0.7-0.8c0.8-0.8,1.4-1.8,1.6-2.9c0.2-1.5-0.2-2.9-1.2-4
			C13.4,680.5,12.6,680.1,11.7,680L11.7,680z M9.4,680.3c2.4,0,4.4,0.9,4.4,2c0,1.3-2.6,2-4.4,2c-2.4,0-4.4-0.9-4.4-2
			S7.1,680.3,9.4,680.3L9.4,680.3z M5,685.5v-2.2c1.2,1,2.8,1.5,4.4,1.4c1,0,2.1-0.2,3.1-0.5c-1.2,1.1-2.5,2.2-3.9,3.2v-1
			c0-0.1-0.1-0.2-0.2-0.2c-0.1,0-0.2,0.1-0.2,0.2v1.1c-0.3,0-0.7-0.1-1-0.2v-1.1c0-0.1-0.1-0.2-0.2-0.2c-0.1,0-0.2,0.1-0.2,0.2
			c0,0,0,0,0,0v1c-0.3-0.1-0.5-0.2-0.8-0.3v-1.2c0-0.1-0.1-0.2-0.2-0.2c-0.1,0-0.2,0.1-0.2,0.2v1C5.3,686.3,5.1,685.9,5,685.5
			L5,685.5z M9.1,691.5l-2.7-2.1l1-0.7c0.2,0.1,0.4,0.2,0.6,0.1c0.1,0,0.3,0,0.4,0.1c0.1,0.1,0.2,0.2,0.2,0.3c0.1,0.5,0.5,0.8,1,0.7
			c0.3-0.1,0.5,0.1,0.6,0.4c0,0,0,0,0,0c0,0.1,0.1,0.2,0.1,0.3C9.9,690.9,9.5,691.2,9.1,691.5L9.1,691.5z M15,684.9
			c0,0.3-0.1,0.6-0.3,0.9l-0.3-0.4c-0.1-0.1-0.2-0.1-0.3,0c-0.1,0.1-0.1,0.2-0.1,0.3c0,0,0,0,0,0l0.4,0.6c-0.2,0.3-0.4,0.6-0.6,0.9
			l-0.6-0.6c0-0.1-0.1-0.1-0.2-0.1c-0.1,0-0.1,0.1-0.1,0.1c0,0.1,0,0.1,0,0.2l0.6,0.7l-0.1,0.2c-0.2,0.2-0.4,0.5-0.6,0.7l-0.8-0.7
			c-0.1,0-0.1,0-0.2,0c-0.1,0-0.1,0.1-0.1,0.2c0,0.1,0,0.1,0.1,0.2l0.8,0.7c-0.3,0.3-0.5,0.5-0.8,0.8l-0.9-0.8c-0.1,0-0.1,0-0.2,0
			c-0.1,0-0.1,0.1-0.1,0.2c0,0.1,0,0.1,0.1,0.2l0.9,0.8c-0.3,0.3-0.6,0.5-0.9,0.8c0,0,0-0.1,0-0.1c-0.1-0.5-0.5-0.8-1-0.7
			c-0.1,0-0.3,0-0.4-0.1c-0.1-0.1-0.2-0.2-0.2-0.3c-0.1-0.5-0.5-0.8-1-0.7c0,0,0,0,0,0H7.8c2.3-1.6,5-3.7,6-5.1
			c0.3-0.3,0.4-0.6,0.4-1c-0.1-0.6-0.4-1.2-1-1.5c0.2,0.1,0.4,0.2,0.6,0.4C14.7,682.3,15.2,683.6,15,684.9z"/>
		<path id="Shape-6" d="M9.4,683.5c0.8,0,2.2-0.2,2.5-1c0.2-0.5-0.2-1-0.6-1.3c-0.4-0.3-0.9-0.5-1.4-0.6c-0.2,0-0.3,0-0.4,0.1
			c-0.1,0.1-0.1,0.1-0.2,0.2c-1.4,0-2.4,0.6-2.4,1.3C6.9,683.1,8.4,683.5,9.4,683.5L9.4,683.5z M10.9,682.8l0.1-1.4l0.1,0.1
			C11.9,682,11.8,682.5,10.9,682.8L10.9,682.8z M9.6,681.1L9.6,681.1c0,0,0-0.1,0.1-0.1c0,0,0.1,0,0.1,0c0.3,0.1,0.5,0.2,0.8,0.3
			l-0.1,1.7c-0.3,0.1-0.7,0.1-1,0.1L9.6,681.1z M9.2,681.3l-0.1,1.8c-1.1-0.1-1.8-0.5-1.8-0.9S8,681.3,9.2,681.3z"/>
		<path id="Shape-7" d="M10.1,681.9c-0.1,0-0.2,0.1-0.2,0.2l0,0v0.2c0,0.1,0.1,0.2,0.2,0.2c0.1,0,0.2-0.1,0.2-0.2c0,0,0,0,0,0v-0.2
			C10.3,682,10.2,681.9,10.1,681.9C10.1,681.9,10.1,681.9,10.1,681.9z"/>
		<path id="Shape-8" d="M8,689.5c-0.1-0.1-0.2-0.1-0.3,0s-0.1,0.2,0,0.3c0,0,0,0,0,0l1,0.8c0.1,0.1,0.2,0.1,0.3,0
			c0.1-0.1,0.1-0.2,0-0.3c0,0,0,0,0,0L8,689.5z"/>
	</g>
</g>
<path id="Path_1" class="st9" d="M39.3,463.2l-3.8-3.8c2.4-2.8,2-6.9-0.7-9.3s-6.9-2-9.3,0.7s-2,6.9,0.7,9.3
	c2.5,2.1,6.2,2.1,8.6-0.1l3.8,3.8c0.1,0.1,0.2,0.1,0.3,0.1c0.3,0,0.5-0.2,0.5-0.5C39.5,463.5,39.4,463.3,39.3,463.2L39.3,463.2z
	 M24.9,455.1c0-3.1,2.5-5.7,5.7-5.7s5.7,2.5,5.7,5.7c0,3.1-2.5,5.7-5.7,5.7S24.9,458.3,24.9,455.1C24.9,455.1,24.9,455.1,24.9,455.1
	z"/>
<path id="Path_1-2" class="st4" d="M60.6,463.2l-3.8-3.8c2.4-2.8,2-6.9-0.7-9.3s-6.9-2-9.3,0.7c-2.4,2.8-2,6.9,0.7,9.3
	c2.5,2.1,6.2,2.1,8.6-0.1l3.8,3.8c0.1,0.1,0.2,0.1,0.3,0.1c0.1,0,0.2,0,0.3-0.1C60.8,463.7,60.8,463.4,60.6,463.2
	C60.6,463.3,60.6,463.3,60.6,463.2z M46.2,455.1c0-3.1,2.5-5.7,5.7-5.7s5.7,2.5,5.7,5.7c0,3.1-2.5,5.7-5.7,5.7
	C48.7,460.8,46.2,458.3,46.2,455.1C46.2,455.2,46.2,455.1,46.2,455.1z"/>
<path id="Path_1-3" class="st3" d="M82.2,463.2l-3.8-3.8c2.4-2.8,2-6.9-0.7-9.3c-2.8-2.4-6.9-2-9.3,0.7s-2,6.9,0.7,9.3
	c2.5,2.1,6.2,2.1,8.6-0.1l3.8,3.8c0.2,0.2,0.5,0.2,0.7,0C82.4,463.7,82.4,463.4,82.2,463.2z M67.8,455.1c0-3.1,2.5-5.7,5.7-5.7
	c3.1,0,5.7,2.5,5.7,5.7c0,3.1-2.5,5.7-5.7,5.7c0,0,0,0,0,0C70.3,460.8,67.8,458.3,67.8,455.1C67.7,455.1,67.7,455.1,67.8,455.1z"/>
<g id="like">
	<path id="Path_6" d="M21.4,392.9c-0.2-2.8-2.2-4.8-4.7-4.8c-1.6,0-3.2,0.9-4,2.3c-0.8-1.4-2.3-2.3-3.9-2.3c-2.4,0-4.4,2-4.7,4.8
		c-0.1,0.6,0,1.2,0.1,1.8c0.4,1.5,1.2,2.9,2.4,4l6,5.5l6.1-5.5c1.2-1.1,2-2.5,2.4-4C21.3,394.2,21.4,393.5,21.4,392.9z M20.6,394.6
		c-0.3,1.4-1.1,2.7-2.2,3.6l-5.7,5.1l-5.6-5.1c-1.1-1-1.8-2.2-2.2-3.6c-0.1-0.5-0.2-1-0.1-1.6l0,0c0.2-2.4,1.9-4.2,4-4.2
		c1.6,0,3,1,3.6,2.5l0.3,0.7l0.3-0.7c0.6-1.5,2.1-2.5,3.7-2.5c2.1,0,3.8,1.8,4,4.2C20.7,393.5,20.7,394.1,20.6,394.6L20.6,394.6z"/>
</g>
<g id="like-2">
	<path id="Path_6-2" d="M28.6,295.5c-0.4-4-3.2-6.9-6.7-6.9c-2.4,0-4.5,1.3-5.7,3.3c-1.1-2-3.3-3.3-5.6-3.3c-3.5,0-6.3,2.9-6.7,6.9
		c-0.1,0.9,0,1.8,0.2,2.6c0.5,2.2,1.7,4.2,3.4,5.7l8.6,7.8l8.8-7.9c1.7-1.5,2.9-3.5,3.4-5.7C28.6,297.2,28.7,296.3,28.6,295.5z
		 M27.5,297.9c-0.5,2-1.6,3.8-3.1,5.2l-8.1,7.3l-8-7.2c-1.6-1.4-2.6-3.2-3.1-5.2c-0.2-0.7-0.3-1.5-0.2-2.2v0c0.3-3.5,2.7-6,5.8-6
		c2.3,0,4.3,1.5,5.1,3.6l0.4,1l0.4-1c0.9-2.1,3-3.6,5.3-3.6c3,0,5.4,2.5,5.8,6.1C27.7,296.4,27.7,297.1,27.5,297.9z"/>
</g>
<path d="M28.6,322.2c-0.4-4-3.2-6.9-6.7-6.9c-2.4,0-4.5,1.3-5.7,3.3c-1.1-2-3.3-3.3-5.6-3.3c-3.5,0-6.3,2.9-6.7,6.9
	c-0.1,0.9,0,1.8,0.2,2.6c0.5,2.2,1.7,4.2,3.4,5.7l8.6,7.8l8.8-7.8c1.7-1.5,2.9-3.5,3.4-5.7C28.6,324,28.7,323.1,28.6,322.2z"/>
<g id="like-3">
	<path id="Path_6-3" class="st4" d="M27.3,77.7c-0.3-3.8-3-6.5-6.3-6.5c-2.2,0-4.3,1.2-5.4,3.1c-1.1-1.9-3.1-3.1-5.3-3.1
		c-3.4,0-6,2.7-6.4,6.5c-0.1,0.8,0,1.7,0.2,2.5c0.5,2.1,1.6,4,3.2,5.4l8.2,7.4l8.3-7.4c1.6-1.4,2.7-3.3,3.2-5.4
		C27.4,79.4,27.4,78.5,27.3,77.7z M26.2,80c-0.5,1.9-1.5,3.7-3,5l-7.7,6.9L8,84.9c-1.5-1.3-2.5-3.1-3-5c-0.2-0.7-0.3-1.4-0.2-2.1
		v-0.1c0.3-3.3,2.6-5.7,5.5-5.7c2.2,0,4.1,1.4,4.9,3.4l0.4,1l0.4-1c0.8-2,2.8-3.4,5-3.4c2.9,0,5.2,2.4,5.5,5.8
		C26.5,78.5,26.4,79.3,26.2,80z"/>
</g>
<g id="like-4">
	<path id="Path_6-4" class="st4" d="M77.9,157.9c-0.2-2.7-2.1-4.6-4.5-4.6c-1.6,0-3,0.8-3.8,2.2c-0.8-1.4-2.2-2.2-3.7-2.2
		c-2.4,0-4.2,1.9-4.5,4.6c-0.1,0.6,0,1.2,0.1,1.7c0.4,1.5,1.2,2.8,2.3,3.8l5.8,5.2l5.9-5.2c1.1-1,1.9-2.4,2.3-3.8
		C77.9,159.1,78,158.5,77.9,157.9z M77.2,159.5c-0.3,1.4-1.1,2.6-2.1,3.5l-5.4,4.9l-5.3-4.9c-1-0.9-1.8-2.2-2.1-3.5
		c-0.1-0.5-0.2-1-0.1-1.5l0,0c0-2.1,1.7-3.9,3.9-4c1.5,0,2.9,1,3.4,2.4l0.3,0.7l0.3-0.7c0.6-1.4,2-2.4,3.5-2.4c2,0,3.7,1.7,3.9,4.1
		C77.3,158.6,77.3,159.1,77.2,159.5L77.2,159.5z"/>
</g>
<g id="like-5">
	<path id="Path_6-5" class="st3" d="M103.3,128c-0.2-2.7-2.1-4.6-4.5-4.6c-1.6,0-3,0.8-3.8,2.2c-0.8-1.4-2.2-2.2-3.7-2.2
		c-2.4,0-4.2,1.9-4.5,4.6c-0.1,0.6,0,1.2,0.1,1.8c0.4,1.5,1.2,2.8,2.3,3.8l5.8,5.2l5.9-5.2c1.1-1,1.9-2.3,2.3-3.8
		C103.3,129.1,103.4,128.6,103.3,128z M102.5,129.6c-0.3,1.4-1.1,2.6-2.1,3.5l-5.4,4.8l-5.4-4.9c-1-0.9-1.8-2.2-2.1-3.5
		c-0.1-0.5-0.2-1-0.1-1.5l0,0c0.2-2.3,1.8-4,3.9-4c1.5,0,2.9,1,3.4,2.4l0.3,0.7l0.3-0.7c0.6-1.4,2-2.4,3.5-2.4c2,0,3.7,1.7,3.9,4.1
		C102.7,128.6,102.7,129.1,102.5,129.6L102.5,129.6z"/>
</g>
<g id="like-6">
	<path id="Path_6-6" d="M83.3,128c-0.2-2.7-2.1-4.6-4.5-4.6c-1.6,0-3,0.8-3.8,2.2c-0.8-1.4-2.2-2.2-3.7-2.2c-2.4,0-4.2,1.9-4.5,4.6
		c-0.1,0.6,0,1.2,0.1,1.8c0.4,1.5,1.2,2.8,2.3,3.8l5.8,5.2l5.9-5.2c1.1-1,1.9-2.3,2.3-3.8C83.3,129.1,83.4,128.6,83.3,128z
		 M82.5,129.6c-0.3,1.4-1.1,2.6-2.1,3.5l-5.4,4.8l-5.4-4.9c-1-0.9-1.8-2.2-2.1-3.5c-0.1-0.5-0.2-1-0.1-1.5l0,0c0-2.1,1.7-3.9,3.8-4
		c1.5,0,2.9,1,3.4,2.4l0.3,0.7l0.3-0.7c0.6-1.4,2-2.4,3.5-2.4c2,0,3.7,1.7,3.9,4.1C82.7,128.6,82.7,129.1,82.5,129.6L82.5,129.6z"/>
</g>
<path class="st4" d="M27.3,101.4c-0.3-3.8-3-6.5-6.4-6.5c-2.2,0-4.3,1.2-5.4,3.1c-1.1-1.9-3.1-3.1-5.3-3.1c-3.4,0-6,2.7-6.4,6.5
	c-0.1,0.8,0,1.7,0.2,2.5c0.5,2.1,1.6,4,3.2,5.4l8.2,7.4l8.3-7.4c1.6-1.4,2.7-3.3,3.2-5.4C27.3,103,27.4,102.2,27.3,101.4z"/>
<g id="user">
	<path id="Path_5" d="M16.6,132.9L16.6,132.9l-0.3-0.1l-0.4-0.1l-0.3-0.1l-0.5-0.1H15l0,0l-0.3-0.1h-0.1h-0.2h-0.3c-0.3,0-0.7,0-1,0
		h-0.2h-0.3l0,0h-0.2h-0.2l-0.4,0.1l-0.3,0.1h-0.1c-0.2,0.1-0.4,0.2-0.7,0.3h-0.1l0,0c-2.6,1.2-4.2,3.8-4.2,6.7v0.2v0.4h14.7v-0.4
		c0-0.1,0-0.1,0-0.2C20.9,136.7,19.2,134.1,16.6,132.9z M6.8,139.6c0-2.6,1.5-4.9,3.8-6h0.1l0,0l0.6-0.2h0.1l0.3-0.1l0.4-0.1h0.2
		h0.2l0,0h0.3H13c0.3,0,0.7,0,1,0h0.2h0.2h0.1l0.3,0.1l0,0h0.1l0.4,0.1l0.3,0.1c0.1,0,0.2,0.1,0.3,0.1l0.3,0.1l0,0
		c2.4,1.1,3.9,3.4,3.9,6L6.8,139.6z M11.8,131.3l0.2,0.1H12l0.1,0.1c0.4,0.1,0.9,0.2,1.3,0.2l0,0c0.2,0,0.3,0,0.5,0h0.1h0.1h0.2h0.1
		h0.1h0.2H15h0.1l0.2-0.1h0.1l0,0l0.3-0.1h0.1c0.1-0.1,0.2-0.1,0.3-0.2l0.2-0.1l0.2-0.1c1.1-0.9,1.7-2.2,1.7-3.5l0,0
		c0.1-2.6-1.9-4.7-4.5-4.8c-2.6-0.1-4.7,1.9-4.8,4.5v0.1c0,0.1,0,0.2,0,0.2C9,129.2,10.1,130.6,11.8,131.3L11.8,131.3z M9.7,126.9
		L9.7,126.9c0.2-2.2,2-3.8,4.2-3.7c2,0.1,3.6,1.8,3.6,3.8l0,0c0,1.2-0.5,2.3-1.4,3l-0.2,0.1l-0.1,0.1l-0.3,0.2h-0.1l-0.2,0.1h-0.1
		l-0.2,0.1h-0.1h-0.1h-0.1h-0.1h-0.1h-0.1h-0.1H14h-0.4l0,0c-0.4,0-0.8-0.1-1.2-0.2h-0.1h-0.1h-0.1C10.6,129.8,9.7,128.4,9.7,126.9
		C9.6,126.9,9.7,126.9,9.7,126.9L9.7,126.9z"/>
</g>
<g id="user-2">
	<path id="Path_5-2" class="st4" d="M36.6,132.9L36.6,132.9l-0.3-0.1l-0.4-0.1l-0.3-0.1l-0.5-0.1H35l0,0l-0.3-0.1h-0.1h-0.2h-0.3
		c-0.3,0-0.7,0-1,0h-0.2h-0.3l0,0h-0.2h-0.2l-0.5,0.1l-0.3,0.1h-0.1c-0.2,0.1-0.5,0.2-0.7,0.3h-0.1l0,0c-2.6,1.2-4.2,3.8-4.2,6.7
		v0.2v0.4h14.6v-0.4c0-0.1,0-0.1,0-0.2C40.9,136.7,39.2,134.1,36.6,132.9z M26.9,139.6c0-2.6,1.5-4.9,3.8-6h0.1l0,0l0.5-0.2h0.1
		l0.3-0.1l0.4-0.1h0.2h0.2l0,0h0.3H33c0.3,0,0.7,0,1,0h0.2h0.2h0.1l0.3,0.1l0,0h0.1l0.4,0.1l0.3,0.1c0.1,0,0.2,0.1,0.3,0.1l0.3,0.1
		l0,0c2.4,1.1,3.9,3.4,3.9,6L26.9,139.6z M31.8,131.3l0.2,0.1H32l0.1,0.1c0.4,0.1,0.9,0.2,1.3,0.2l0,0c0.2,0,0.3,0,0.5,0h0.2h0.1
		h0.2h0.1h0.1h0.2H35h0.1l0.2-0.1h0.1l0,0l0.3-0.1h0.1c0.1-0.1,0.2-0.1,0.3-0.2l0.2-0.1l0.2-0.1c1.1-0.9,1.7-2.2,1.7-3.5l0,0
		c0.1-2.6-1.9-4.7-4.5-4.8c-2.6-0.1-4.7,1.9-4.8,4.5v0.1c0,0.1,0,0.2,0,0.2C29,129.2,30.1,130.6,31.8,131.3L31.8,131.3z M29.7,126.9
		L29.7,126.9c0.2-2.2,2-3.8,4.2-3.7c2,0.1,3.6,1.8,3.6,3.8l0,0c0,1.2-0.5,2.3-1.4,3l-0.2,0.1l-0.1,0.1l-0.3,0.2h-0.1l-0.2,0.1h-0.1
		l-0.2,0.1h-0.1h-0.1h-0.1h-0.2h-0.1h-0.1h-0.1H34h-0.4l0,0c-0.4,0-0.8-0.1-1.2-0.2h-0.1h-0.1h-0.1
		C30.6,129.8,29.7,128.4,29.7,126.9C29.7,126.9,29.7,126.9,29.7,126.9L29.7,126.9z"/>
</g>
<g id="user-3">
	<path id="Path_5-3" class="st3" d="M56.4,132.9L56.4,132.9l-0.3-0.1l-0.4-0.1l-0.3-0.1l-0.5-0.1h-0.2l0,0l-0.3-0.1h-0.1h-0.2h-0.3
		c-0.3,0-0.7,0-1,0h-0.3h-0.3l0,0h-0.2h-0.2l-0.5,0.1l-0.3,0.1H51c-0.2,0.1-0.5,0.2-0.7,0.3l0,0l0,0c-2.6,1.2-4.2,3.8-4.2,6.7
		c0,0.1,0,0.1,0,0.2v0.4h14.7v-0.4v-0.2C60.7,136.7,59,134.1,56.4,132.9z M46.6,139.6c0-2.6,1.5-4.9,3.8-6h0.1l0,0
		c0.2-0.1,0.4-0.1,0.5-0.2h0.1l0.3-0.1l0.4-0.1h0.2h0.2l0,0h0.3h0.2c0.3,0,0.7,0,1,0H54h0.2h0.1l0.3,0.1l0,0h0.1l0.4,0.1l0.3,0.1
		c0.1,0,0.2,0.1,0.3,0.1l0.3,0.1l0,0c2.3,1.1,3.9,3.4,3.9,6L46.6,139.6L46.6,139.6z M51.5,131.3l0.2,0.1h0.1l0.1,0.1
		c0.4,0.1,0.9,0.2,1.3,0.2l0,0c0.2,0,0.3,0,0.5,0h0.2H54h0.2h0.1h0.1h0.2h0.1h0.1l0.2-0.1h0.1l0,0l0.3-0.1h0.1
		c0.1-0.1,0.2-0.1,0.3-0.2l0.2-0.1l0.2-0.1c1.2-0.9,1.9-2.4,1.8-3.9l0,0c0.1-2.6-1.9-4.7-4.5-4.8c-2.6-0.1-4.7,1.9-4.8,4.5v0.1
		c0,0.1,0,0.2,0,0.2C48.8,128.9,49.9,130.6,51.5,131.3L51.5,131.3z M49.4,126.9L49.4,126.9c0.2-2.2,2-3.8,4.2-3.7
		c2,0.1,3.6,1.8,3.6,3.8l0,0c0,1.2-0.5,2.3-1.4,3l-0.2,0.1l-0.1,0.1l-0.3,0.2h0l-0.2,0.1h-0.1l-0.2,0.1h-0.1h-0.1h-0.1h-0.1h-0.1H54
		h-0.1h-0.1h-0.4l0,0c-0.4,0-0.8-0.1-1.2-0.2h-0.1H52h-0.1C50.4,129.8,49.5,128.4,49.4,126.9C49.5,126.8,49.5,126.8,49.4,126.9
		L49.4,126.9z"/>
</g>
<path class="st4" d="M17.7,353.8L17.7,353.8l-0.3-0.1l-0.4-0.1l-0.3-0.1l-0.5-0.1h-0.1l0,0h-0.3h0h-0.2h-0.3c-0.3,0-0.7,0-1,0H14
	h-0.3l0,0h-0.2h-0.2l-0.4,0.1l-0.3,0.1h-0.1l-0.6,0.3h-0.1c-2.4,1.2-4,3.7-4,6.4v0.2v0.4h14v-0.4c0-0.1,0-0.1,0-0.2
	C21.8,357.4,20.2,354.9,17.7,353.8z"/>
<path class="st4" d="M13,352.2l0.2,0.1h0.1l0.1,0c0.4,0.1,0.8,0.2,1.3,0.2l0,0c0.1,0,0.3,0,0.4,0h0.1h0.1h0.2h0.1h0.1H16h0.1h0.1
	l0.2-0.1h0.1l0,0l0.3-0.1h0.1l0.3-0.2l0.2-0.1l0.2-0.1c1-0.8,1.6-2.1,1.6-3.4l0,0c0.1-2.4-1.8-4.5-4.3-4.5s-4.5,1.8-4.5,4.3l0,0
	v-0.4c0,0.1,0,0.1,0,0.2C10.3,349.9,11.4,351.6,13,352.2z"/>
<path d="M17.8,451.5h-2.3v-0.1c-0.3-1.9-2-3.3-4-3c-1.6,0.2-2.8,1.5-3,3v0.1H6.1c-0.2,0-0.4,0.1-0.4,0.3v9.7l0,0
	c0.1,1.4,1.2,2.4,2.6,2.4c0,0,0,0,0,0h7.1c1.4,0.1,2.6-1,2.6-2.3l0,0v-9.7C18.2,451.7,18,451.5,17.8,451.5
	C17.8,451.5,17.8,451.5,17.8,451.5z M9.2,451.4c0.1-1.5,1.4-2.7,2.9-2.6c1.4,0.1,2.5,1.2,2.6,2.6v0.1H9.2V451.4z"/>
<g id="Group_3">
	<path id="Path_4" d="M14.2,156.6v9.7l0,0l0,0c0.1,1.4,1.3,2.4,2.7,2.4H24c1.4,0.1,2.6-1,2.7-2.4v-9.8c0-0.2-0.2-0.3-0.4-0.3H24
		v-0.1c0-2-1.6-3.6-3.5-3.6s-3.6,1.6-3.6,3.6v0.1h-2.4C14.3,156.2,14.2,156.4,14.2,156.6C14.2,156.6,14.2,156.6,14.2,156.6z M24,168
		h-7.2c-0.9,0.1-1.8-0.6-1.9-1.6l0-9.4h2v1.7c0,0.2,0.2,0.4,0.4,0.4c0.2,0,0.4-0.2,0.4-0.4l0,0v-1.7h5.6v1.7c0,0.2,0.2,0.4,0.4,0.4
		c0,0,0,0,0,0c0.2,0,0.4-0.2,0.4-0.4c0,0,0,0,0,0l0,0v-1.7h2v9.4C25.9,167.4,25,168.1,24,168C24,168,24,168,24,168z M23.2,156.3
		h-5.6v-0.1c0.1-1.5,1.4-2.7,3-2.6c1.4,0.1,2.5,1.2,2.6,2.6L23.2,156.3z"/>
</g>
<g id="Group_3-2">
	<path id="Path_4-2" class="st4" d="M42,156.6v9.7l0,0l0,0c0.1,1.4,1.3,2.4,2.7,2.4h7.2c1.4,0.1,2.6-1,2.7-2.4v-9.8
		c0-0.2-0.2-0.3-0.4-0.3h-2.3v-0.1c0-2-1.6-3.5-3.6-3.5c-2,0-3.5,1.6-3.5,3.5v0.1h-2.3C42.2,156.2,42,156.4,42,156.6
		C42,156.6,42,156.6,42,156.6z M51.8,168h-7.2c-0.9,0.1-1.8-0.6-1.9-1.6v-9.4h2v1.7c0,0.2,0.2,0.4,0.4,0.4c0.2,0,0.4-0.2,0.4-0.4
		l0,0v-1.7h5.6v1.7c0,0.2,0.2,0.4,0.4,0.4c0,0,0,0,0,0c0.2,0,0.4-0.2,0.4-0.4c0,0,0,0,0,0l0,0v-1.7h2v9.4
		C53.8,167.4,52.9,168.1,51.8,168C51.9,168,51.9,168,51.8,168z M51,156.3h-5.6v-0.1c0.1-1.5,1.4-2.7,3-2.6c1.4,0.1,2.5,1.2,2.6,2.6
		L51,156.3z"/>
</g>
<path d="M22.7,695.9h-12c-3.9,0-7.1,3.2-7.1,7.1v12c0,3.9,3.2,7.1,7.1,7.1h12c3.9,0,7.1-3.2,7.1-7.1v-12
	C29.8,699.1,26.7,695.9,22.7,695.9z M28.3,715c0,3.1-2.5,5.6-5.6,5.6h-12c-3.1,0-5.6-2.5-5.6-5.6v-12c0-3.1,2.5-5.6,5.6-5.6h12
	c3.1,0,5.6,2.5,5.6,5.6V715z"/>
<path d="M16.7,701.9c-4,0-7.2,3.2-7.2,7.2c0,4,3.2,7.2,7.2,7.2s7.2-3.2,7.2-7.2l0,0C23.9,705.1,20.7,701.9,16.7,701.9z M16.7,714.7
	c-3.1,0-5.6-2.5-5.6-5.6s2.5-5.6,5.6-5.6s5.6,2.5,5.6,5.6C22.3,712.2,19.8,714.7,16.7,714.7L16.7,714.7z"/>
<path d="M24.1,699.4c-1.2,0-2.1,0.9-2.1,2.1c0,1.2,0.9,2.1,2.1,2.1c1.2,0,2.1-0.9,2.1-2.1c0,0,0,0,0,0
	C26.2,700.3,25.2,699.4,24.1,699.4z M24.1,702.1c-0.3,0-0.6-0.3-0.6-0.6c0-0.3,0.3-0.6,0.6-0.6c0.3,0,0.6,0.3,0.6,0.6c0,0,0,0,0,0
	C24.7,701.8,24.4,702.1,24.1,702.1z"/>
<path class="st3" d="M17.2,616.6H9.5c-2.5,0-4.6,2-4.6,4.6v7.7c0,2.5,2,4.6,4.6,4.6h7.7c2.5,0,4.6-2,4.6-4.6v-7.7
	C21.7,618.6,19.7,616.6,17.2,616.6z M20.8,628.8c0,2-1.6,3.6-3.6,3.6H9.5c-2,0-3.6-1.6-3.6-3.6c0,0,0,0,0,0v-7.7
	c0-2,1.6-3.6,3.6-3.6c0,0,0,0,0,0h7.7c2,0,3.6,1.6,3.6,3.6V628.8z"/>
<path class="st3" d="M13.3,620.4c-2.5,0-4.6,2.1-4.6,4.6c0,2.5,2.1,4.6,4.6,4.6c2.5,0,4.6-2.1,4.6-4.6c0,0,0,0,0,0
	C17.9,622.4,15.9,620.4,13.3,620.4z M13.3,628.6c-2,0-3.6-1.6-3.6-3.6c0-2,1.6-3.6,3.6-3.6s3.6,1.6,3.6,3.6l0,0
	C16.9,627,15.3,628.6,13.3,628.6z"/>
<path class="st3" d="M18,618.7c-0.8,0-1.4,0.6-1.4,1.4c0,0.8,0.6,1.4,1.4,1.4c0.8,0,1.4-0.6,1.4-1.4l0,0
	C19.4,619.3,18.8,618.7,18,618.7z M18,620.5c-0.2,0-0.4-0.2-0.4-0.4c0,0,0,0,0,0c0-0.2,0.2-0.3,0.4-0.3c0.2,0,0.3,0.2,0.3,0.3
	C18.4,620.3,18.2,620.5,18,620.5z"/>
<path d="M16.2,406.9H8.4c-2.5,0-4.6,2-4.6,4.6v7.7c0,2.5,2,4.6,4.6,4.6h7.7c2.5,0,4.6-2,4.6-4.6v-7.7
	C20.7,409,18.7,406.9,16.2,406.9z M19.7,419.2c0,2-1.6,3.6-3.6,3.6H8.4c-2,0-3.6-1.6-3.6-3.6l0,0v-7.7c0-2,1.6-3.6,3.6-3.6h7.7
	c2,0,3.6,1.6,3.6,3.6V419.2z"/>
<path d="M12.3,410.8c-2.5,0-4.6,2.1-4.6,4.6c0,2.5,2.1,4.6,4.6,4.6s4.6-2.1,4.6-4.6l0,0C16.9,412.8,14.8,410.8,12.3,410.8z
	 M12.3,419c-2,0-3.6-1.6-3.6-3.6c0-2,1.6-3.6,3.6-3.6s3.6,1.6,3.6,3.6l0,0C15.9,417.4,14.3,419,12.3,419z"/>
<path d="M17,409.1c-0.8,0-1.4,0.6-1.4,1.4c0,0.8,0.6,1.4,1.4,1.4s1.4-0.6,1.4-1.4c0,0,0,0,0,0C18.4,409.7,17.8,409.1,17,409.1z
	 M17,410.9c-0.2,0-0.4-0.1-0.4-0.3c0-0.2,0.1-0.4,0.3-0.4c0,0,0.1,0,0.1,0c0.2,0,0.3,0.2,0.3,0.4C17.3,410.7,17.2,410.8,17,410.9z"
	/>
<path class="st10" d="M15.9,270.1c-0.2-0.1-1.1-0.5-1.3-0.6s-0.3-0.1-0.4,0.1s-0.5,0.6-0.6,0.7s-0.2,0.1-0.4,0
	c-0.6-0.2-1.1-0.5-1.5-0.9c-0.4-0.4-0.8-0.8-1.1-1.3c-0.1-0.2,0-0.3,0.1-0.4c0.2-0.2,0.3-0.4,0.5-0.6c0.1-0.1,0.1-0.2,0-0.3
	c-0.1-0.1-0.4-1-0.6-1.4s-0.3-0.3-0.4-0.3H9.8c-0.2,0-0.4,0.1-0.5,0.2c-0.4,0.4-0.7,1-0.7,1.6c0.1,0.7,0.3,1.4,0.8,2
	c0.8,1.2,1.9,2.2,3.2,2.8c0.3,0.2,0.7,0.3,1.1,0.4c0.4,0.1,0.8,0.1,1.2,0.1c0.5-0.1,1-0.4,1.3-0.9c0.1-0.3,0.2-0.6,0.1-0.9
	C16.2,270.3,16.1,270.2,15.9,270.1z"/>
<path d="M12.7,260.2c-4.7,0-8.5,3.8-8.5,8.5c0,1.6,0.4,3.2,1.3,4.5c-0.3,1.2-1,3.4-1,3.4c0,0.1,0,0.2,0.1,0.3
	c0.1,0.1,0.2,0.1,0.3,0.1l3.4-1c4,2.4,9.2,1.1,11.6-2.9s1.1-9.2-2.9-11.6C15.7,260.6,14.1,260.2,12.7,260.2L12.7,260.2z M12.7,276.5
	c-1.5,0-2.9-0.4-4.2-1.2c0,0-0.1-0.1-0.2,0H8.2l-2.9,0.9c0.2-0.8,0.6-2.2,0.8-3c0-0.1,0-0.2,0-0.3c-2.4-3.6-1.3-8.5,2.3-10.8
	s8.5-1.3,10.8,2.3c2.4,3.6,1.3,8.5-2.3,10.8C15.7,276,14.2,276.4,12.7,276.5L12.7,276.5z"/>
<path class="st11" d="M39.9,270.1c-0.2-0.1-1.1-0.5-1.3-0.6s-0.3-0.1-0.4,0.1c-0.1,0.2-0.5,0.6-0.6,0.7s-0.2,0.1-0.4,0
	c-0.6-0.2-1.1-0.5-1.5-0.9c-0.4-0.4-0.8-0.8-1-1.3c-0.1-0.2,0-0.3,0.1-0.4c0.2-0.2,0.3-0.4,0.5-0.6c0.1-0.1,0.1-0.2,0-0.3
	c0-0.1-0.4-1-0.6-1.4s-0.3-0.3-0.4-0.3h-0.4c-0.2,0-0.4,0.1-0.5,0.2c-0.4,0.4-0.7,1-0.7,1.6c0.1,0.7,0.3,1.4,0.8,2
	c0.8,1.2,1.9,2.2,3.2,2.8c0.3,0.2,0.7,0.3,1.1,0.4c0.4,0.1,0.8,0.1,1.2,0.1c0.5-0.1,1-0.4,1.3-0.9c0.1-0.3,0.2-0.6,0.1-0.9
	C40.2,270.3,40.1,270.2,39.9,270.1z"/>
<path class="st3" d="M36.6,260.2c-4.7,0-8.5,3.8-8.5,8.5c0,1.6,0.4,3.2,1.3,4.5c-0.3,1.2-1,3.4-1,3.4c0,0.1,0,0.2,0.1,0.3
	c0.1,0.1,0.2,0.1,0.3,0.1l3.4-1c4,2.4,9.2,1.1,11.6-2.9s1.1-9.2-2.9-11.6C39.6,260.6,38.1,260.2,36.6,260.2L36.6,260.2z M36.6,276.5
	c-1.5,0-2.9-0.4-4.2-1.2c0,0-0.1-0.1-0.2,0h-0.1l-2.9,0.9c0.2-0.8,0.6-2.2,0.8-3c0-0.1,0-0.2,0-0.3c-2.4-3.6-1.3-8.5,2.3-10.8
	s8.5-1.3,10.8,2.3c2.4,3.6,1.3,8.5-2.3,10.8C39.7,276,38.2,276.4,36.6,276.5L36.6,276.5z"/>
<path class="st10" d="M12.2,576.4c-0.1-0.1-0.7-0.4-0.9-0.4s-0.2-0.1-0.3,0.1l-0.4,0.5c-0.1,0.1-0.1,0.1-0.3,0
	c-0.4-0.2-0.7-0.4-1-0.6c-0.3-0.3-0.5-0.5-0.7-0.9c-0.1-0.1,0-0.2,0-0.2c0.1-0.1,0.2-0.3,0.3-0.4c0-0.1,0-0.2,0-0.2
	c0-0.1-0.3-0.7-0.4-0.9S8.5,573,8.4,573H8.1c-0.1,0-0.2,0.1-0.3,0.2c-0.3,0.3-0.4,0.6-0.4,1c0,0.5,0.2,0.9,0.5,1.3
	c0.5,0.8,1.2,1.5,2.1,2c0.2,0.1,0.5,0.2,0.7,0.3c0.3,0.1,0.5,0.1,0.8,0c0.4-0.1,0.7-0.3,0.9-0.6c0.1-0.2,0.1-0.4,0.1-0.6
	C12.4,576.5,12.4,576.5,12.2,576.4z"/>
<path d="M10.1,569.8c-3.1,0-5.7,2.6-5.6,5.7c0,1,0.3,2.1,0.8,3c-0.2,0.8-0.6,2.3-0.6,2.3c0,0.1,0,0.2,0.1,0.2c0.1,0,0.1,0,0.2,0
	l2.2-0.7c2.7,1.6,6.1,0.7,7.8-1.9c1.6-2.7,0.7-6.1-1.9-7.8C12.1,570,11.1,569.7,10.1,569.8L10.1,569.8z M10.1,580.6
	c-1,0-1.9-0.3-2.8-0.8c0,0-0.1,0-0.1,0H7.1l-2,0.6l0.6-2c0-0.1,0-0.1,0-0.2c-1.6-2.4-0.9-5.6,1.5-7.2c2.4-1.6,5.6-0.9,7.2,1.5
	c1.6,2.4,0.9,5.6-1.5,7.2C12.1,580.4,11.1,580.7,10.1,580.6L10.1,580.6z"/>
<path class="st11" d="M16.4,648c-0.2-0.1-1.1-0.5-1.3-0.6s-0.3-0.1-0.4,0.1s-0.5,0.6-0.6,0.8s-0.2,0.1-0.4,0
	c-0.6-0.2-1.1-0.5-1.5-0.9c-0.4-0.4-0.8-0.8-1.1-1.3c-0.1-0.2,0-0.3,0.1-0.4c0.2-0.2,0.3-0.4,0.5-0.7c0.1-0.1,0.1-0.2,0-0.3
	c0-0.1-0.4-1-0.6-1.4s-0.3-0.3-0.4-0.3h-0.3c-0.2,0-0.4,0.1-0.5,0.2c-0.4,0.4-0.7,1-0.7,1.6c0.1,0.7,0.3,1.4,0.8,2
	c0.8,1.2,1.9,2.2,3.3,2.9c0.4,0.2,0.7,0.3,1.1,0.4c0.4,0.1,0.8,0.1,1.2,0.1c0.5-0.1,1-0.4,1.3-0.9c0.1-0.3,0.2-0.6,0.1-0.9
	C16.7,648.2,16.6,648.1,16.4,648z"/>
<path class="st3" d="M13.1,637.9c-4.8,0-8.6,3.9-8.6,8.6c0,1.6,0.5,3.2,1.3,4.6c-0.4,1.2-1,3.5-1,3.5c0,0.1,0,0.2,0.1,0.3
	C5,655,5.1,655,5.2,655l3.4-1c4.1,2.5,9.4,1.1,11.8-2.9c0.8-1.3,1.2-2.9,1.2-4.4C21.7,641.8,17.9,637.9,13.1,637.9z M13.1,654.5
	c-1.5,0-3-0.4-4.2-1.2c-0.1,0-0.1,0-0.2,0H8.6l-3,0.9c0.2-0.8,0.6-2.2,0.8-3c0-0.1,0-0.2,0-0.3c-2.4-3.7-1.4-8.7,2.3-11.1
	s8.7-1.4,11.1,2.3c2.4,3.7,1.4,8.7-2.3,11.1C16.2,654,14.7,654.5,13.1,654.5L13.1,654.5z"/>
<path class="st12" d="M5,738.6c-0.5-0.4-1.2-0.4-1.7,0.1c-0.4,0.5-0.4,1.1,0,1.6l25.3,25.3L3.3,790.9c-0.5,0.5-0.5,1.2,0,1.7
	c0.5,0.5,1.2,0.5,1.7,0l0,0l26.2-26.2c0.5-0.5,0.5-1.2,0-1.7L5,738.6z"/>
<path class="st13" d="M4.1,793c-0.7,0-1.2-0.6-1.2-1.2c0-0.3,0.1-0.6,0.3-0.8l25.3-25.4L3.3,740.3c-0.5-0.5-0.5-1.2,0-1.7
	c0.5-0.5,1.2-0.5,1.7,0l0,0l26.2,26.2c0.5,0.5,0.5,1.2,0,1.7c0,0,0,0,0,0L5,792.6C4.8,792.9,4.4,793,4.1,793z"/>
<path class="st13" d="M39.2,722.1c-0.3,0-0.6-0.2-0.6-0.6c0,0,0,0,0,0c0-0.2,0.1-0.3,0.2-0.4L51,708.9l-12.2-12.2
	c-0.2-0.2-0.2-0.6,0-0.8c0.2-0.2,0.6-0.2,0.8,0c0,0,0,0,0,0l12.6,12.6c0.2,0.2,0.2,0.6,0,0.8l-12.6,12.6
	C39.5,722,39.4,722.1,39.2,722.1z"/>
<path class="st3" d="M30.1,919.1c0.7,0,1.2-0.5,1.2-1.2v0c0-0.3-0.1-0.6-0.3-0.8L5.4,891.8l25.5-25.3c0.5-0.5,0.5-1.2,0-1.7
	c0,0,0,0,0,0c-0.5-0.5-1.2-0.5-1.7,0L2.9,890.9c-0.5,0.5-0.5,1.2,0,1.7c0,0,0,0,0,0l26.3,26.2C29.5,919,29.8,919.1,30.1,919.1z"/>
<path class="st13" d="M30.1,978.5c0.7,0,1.2-0.5,1.2-1.2c0,0,0,0,0,0c0-0.3-0.1-0.6-0.3-0.8L5.4,951.1l25.5-25.3
	c0.5-0.5,0.5-1.2,0-1.7c0,0,0,0,0,0c-0.5-0.5-1.2-0.5-1.7,0c0,0,0,0,0,0L2.9,950.2c-0.5,0.5-0.5,1.2,0,1.7c0,0,0,0,0,0l26.3,26.2
	C29.5,978.3,29.8,978.5,30.1,978.5z"/>
<path class="st13" d="M71.2,721.9c0.3,0,0.6-0.2,0.6-0.5c0,0,0,0,0,0c0-0.1-0.1-0.3-0.2-0.4l-12.2-12l12.2-12.1
	c0.2-0.2,0.2-0.6,0-0.8c-0.2-0.2-0.6-0.2-0.8,0c0,0,0,0,0,0l-12.6,12.5c-0.2,0.2-0.2,0.6,0,0.8l12.6,12.5
	C70.9,721.9,71,721.9,71.2,721.9z"/>
<path class="st3" d="M4.1,860.8c-0.7,0-1.2-0.5-1.2-1.2l0,0c0-0.3,0.1-0.6,0.3-0.8l25.3-25.3L3.3,808.1c-0.5-0.5-0.5-1.2,0-1.7
	c0.5-0.5,1.2-0.5,1.7,0l26.2,26.2c0.5,0.5,0.5,1.2,0,1.7c0,0,0,0,0,0L5,860.4C4.8,860.6,4.4,860.8,4.1,860.8z"/>
<g>
	<g>
		<path d="M61.8,271.5c-0.9,0-1.6,0.4-2.1,1l-4.9-2.8c0.1-0.3,0.2-0.6,0.2-1c0-0.4-0.1-0.7-0.2-1l4.9-2.8c0.5,0.6,1.2,1,2.1,1
			c1.5,0,2.7-1.2,2.7-2.7s-1.2-2.7-2.7-2.7s-2.7,1.2-2.7,2.7c0,0.4,0.1,0.7,0.2,1l-4.9,2.8c-0.5-0.6-1.2-1-2.1-1
			c-1.5,0-2.7,1.2-2.7,2.7c0,1.5,1.2,2.7,2.7,2.7c0.9,0,1.6-0.4,2.1-1l4.9,2.8c-0.1,0.3-0.2,0.6-0.2,1c0,1.5,1.2,2.7,2.7,2.7
			s2.7-1.2,2.7-2.7C64.5,272.7,63.3,271.5,61.8,271.5z M61.8,261.3c1.1,0,1.9,0.9,1.9,1.9c0,1.1-0.9,1.9-1.9,1.9
			c-1.1,0-1.9-0.9-1.9-1.9C59.9,262.1,60.7,261.3,61.8,261.3z M52.3,270.6c-1.1,0-1.9-0.9-1.9-1.9s0.9-1.9,1.9-1.9
			c1.1,0,1.9,0.9,1.9,1.9S53.4,270.6,52.3,270.6z M61.8,276c-1.1,0-1.9-0.9-1.9-1.9c0-1.1,0.9-1.9,1.9-1.9c1.1,0,1.9,0.9,1.9,1.9
			S62.9,276,61.8,276z"/>
	</g>
</g>
<g>
	<g>
		<path class="st4" d="M84.6,271.5c-0.9,0-1.6,0.4-2.1,1l-4.9-2.8c0.1-0.3,0.2-0.6,0.2-1c0-0.4-0.1-0.7-0.2-1l4.9-2.8
			c0.5,0.6,1.2,1,2.1,1c1.5,0,2.7-1.2,2.7-2.7s-1.2-2.7-2.7-2.7c-1.5,0-2.7,1.2-2.7,2.7c0,0.4,0.1,0.7,0.2,1l-4.9,2.8
			c-0.5-0.6-1.2-1-2.1-1c-1.5,0-2.7,1.2-2.7,2.7c0,1.5,1.2,2.7,2.7,2.7c0.9,0,1.6-0.4,2.1-1l4.9,2.8c-0.1,0.3-0.2,0.6-0.2,1
			c0,1.5,1.2,2.7,2.7,2.7c1.5,0,2.7-1.2,2.7-2.7C87.2,272.7,86,271.5,84.6,271.5z M84.6,261.3c1.1,0,1.9,0.9,1.9,1.9
			c0,1.1-0.9,1.9-1.9,1.9c-1.1,0-1.9-0.9-1.9-1.9C82.7,262.1,83.5,261.3,84.6,261.3z M75.1,270.6c-1.1,0-1.9-0.9-1.9-1.9
			s0.9-1.9,1.9-1.9c1.1,0,1.9,0.9,1.9,1.9S76.2,270.6,75.1,270.6z M84.6,276c-1.1,0-1.9-0.9-1.9-1.9c0-1.1,0.9-1.9,1.9-1.9
			c1.1,0,1.9,0.9,1.9,1.9S85.6,276,84.6,276z"/>
	</g>
</g>
</svg>
