<svg xmlns="http://www.w3.org/2000/svg" viewBox="0 0 1440 320"> <path fill="rgba(255,255,255,0.3)" d="M0,192L30,208C60,224,120,256,180,245.3C240,235,300,181,360,144C420,107,480,85,540,96C600,107,660,149,720,154.7C780,160,840,128,900,117.3C960,107,1020,117,1080,112C1140,107,1200,85,1260,74.7C1320,64,1380,64,1410,64L1440,64L1440,320L1410,320C1380,320,1320,320,1260,320C1200,320,1140,320,1080,320C1020,320,960,320,900,320C840,320,780,320,720,320C660,320,600,320,540,320C480,320,420,320,360,320C300,320,240,320,180,320C120,320,60,320,30,320L0,320Z"></path> </svg>